<mxfile host="app.diagrams.net" agent="Mozilla/5.0 (Windows NT 10.0; Win64; x64) AppleWebKit/537.36 (KHTML, like Gecko) Chrome/131.0.0.0 Safari/537.36" version="24.9.0">
  <diagram name="Page-1" id="Mosd15cyVEeY6iYXZMWI">
    <mxGraphModel dx="1932" dy="1755" grid="1" gridSize="10" guides="1" tooltips="1" connect="1" arrows="1" fold="1" page="1" pageScale="1" pageWidth="827" pageHeight="1169" math="0" shadow="0">
      <root>
        <mxCell id="0" />
        <mxCell id="1" parent="0" />
        <mxCell id="8VdT8h9A5mH0Erl7GHtc-1" value="Forgot Password Process" style="whiteSpace=wrap;strokeWidth=2;verticalAlign=top;" vertex="1" parent="1">
          <mxGeometry x="-460" y="-100" width="1030" height="1960" as="geometry" />
        </mxCell>
        <mxCell id="8VdT8h9A5mH0Erl7GHtc-2" value="Open Login Form" style="whiteSpace=wrap;strokeWidth=2;" vertex="1" parent="8VdT8h9A5mH0Erl7GHtc-1">
          <mxGeometry x="382.38546603475515" y="50.59483726150393" width="294.5181674565561" height="52.7946127946128" as="geometry" />
        </mxCell>
        <mxCell id="8VdT8h9A5mH0Erl7GHtc-3" value="Click on Forgot Password" style="whiteSpace=wrap;strokeWidth=2;" vertex="1" parent="8VdT8h9A5mH0Erl7GHtc-1">
          <mxGeometry x="336.82464454976304" y="185.88103254769922" width="387.26698262243286" height="52.7946127946128" as="geometry" />
        </mxCell>
        <mxCell id="8VdT8h9A5mH0Erl7GHtc-4" value="Redirect to Forgot Password Page" style="whiteSpace=wrap;strokeWidth=2;" vertex="1" parent="8VdT8h9A5mH0Erl7GHtc-1">
          <mxGeometry x="375.8767772511849" y="321.1672278338945" width="310.78988941548187" height="72.5925925925926" as="geometry" />
        </mxCell>
        <mxCell id="8VdT8h9A5mH0Erl7GHtc-5" value="User enters Username or Email" style="whiteSpace=wrap;strokeWidth=2;" vertex="1" parent="8VdT8h9A5mH0Erl7GHtc-1">
          <mxGeometry x="336.82464454976304" y="476.25140291806963" width="387.26698262243286" height="72.5925925925926" as="geometry" />
        </mxCell>
        <mxCell id="8VdT8h9A5mH0Erl7GHtc-6" value="Submit" style="whiteSpace=wrap;strokeWidth=2;" vertex="1" parent="8VdT8h9A5mH0Erl7GHtc-1">
          <mxGeometry x="440.96366508688783" y="631.3355780022447" width="178.98894154818325" height="52.7946127946128" as="geometry" />
        </mxCell>
        <mxCell id="8VdT8h9A5mH0Erl7GHtc-7" value="Does Username or Email Exist?" style="rhombus;strokeWidth=2;whiteSpace=wrap;" vertex="1" parent="8VdT8h9A5mH0Erl7GHtc-1">
          <mxGeometry x="335.19747235387047" y="767.7216610549945" width="388.89415481832543" height="262.8731762065096" as="geometry" />
        </mxCell>
        <mxCell id="8VdT8h9A5mH0Erl7GHtc-8" value="Send Forgot Password Email" style="whiteSpace=wrap;strokeWidth=2;" vertex="1" parent="8VdT8h9A5mH0Erl7GHtc-1">
          <mxGeometry x="69.96840442338073" y="1147.182940516274" width="423.0647709320695" height="52.7946127946128" as="geometry" />
        </mxCell>
        <mxCell id="8VdT8h9A5mH0Erl7GHtc-30" style="edgeStyle=orthogonalEdgeStyle;rounded=0;orthogonalLoop=1;jettySize=auto;html=1;exitX=0.75;exitY=0;exitDx=0;exitDy=0;entryX=1;entryY=0.5;entryDx=0;entryDy=0;" edge="1" parent="8VdT8h9A5mH0Erl7GHtc-1" source="8VdT8h9A5mH0Erl7GHtc-9" target="8VdT8h9A5mH0Erl7GHtc-5">
          <mxGeometry relative="1" as="geometry" />
        </mxCell>
        <mxCell id="8VdT8h9A5mH0Erl7GHtc-9" value="Display Error: Username or Email Not Found" style="whiteSpace=wrap;strokeWidth=2;" vertex="1" parent="8VdT8h9A5mH0Erl7GHtc-1">
          <mxGeometry x="574.391785150079" y="1199.9775533108868" width="413.3017377567141" height="72.5925925925926" as="geometry" />
        </mxCell>
        <mxCell id="8VdT8h9A5mH0Erl7GHtc-10" value="Display Success Message" style="whiteSpace=wrap;strokeWidth=2;" vertex="1" parent="8VdT8h9A5mH0Erl7GHtc-1">
          <mxGeometry x="91.12164296998421" y="1293.4680134680136" width="379.13112164297" height="52.7946127946128" as="geometry" />
        </mxCell>
        <mxCell id="8VdT8h9A5mH0Erl7GHtc-11" value="User opens Change Password Link" style="whiteSpace=wrap;strokeWidth=2;" vertex="1" parent="8VdT8h9A5mH0Erl7GHtc-1">
          <mxGeometry x="122.03791469194313" y="1428.7542087542088" width="317.29857819905214" height="72.5925925925926" as="geometry" />
        </mxCell>
        <mxCell id="8VdT8h9A5mH0Erl7GHtc-12" value="User enters Password and Confirm Password" style="whiteSpace=wrap;strokeWidth=2;" vertex="1" parent="8VdT8h9A5mH0Erl7GHtc-1">
          <mxGeometry x="82.98578199052133" y="1583.838383838384" width="395.40284360189577" height="72.5925925925926" as="geometry" />
        </mxCell>
        <mxCell id="8VdT8h9A5mH0Erl7GHtc-13" value="Submit" style="whiteSpace=wrap;strokeWidth=2;" vertex="1" parent="8VdT8h9A5mH0Erl7GHtc-1">
          <mxGeometry x="192.00631911532386" y="1738.9225589225591" width="178.98894154818325" height="52.7946127946128" as="geometry" />
        </mxCell>
        <mxCell id="8VdT8h9A5mH0Erl7GHtc-14" value="Update User Password" style="whiteSpace=wrap;strokeWidth=2;" vertex="1" parent="8VdT8h9A5mH0Erl7GHtc-1">
          <mxGeometry x="104.13902053712481" y="1874.2087542087543" width="354.72353870458136" height="52.7946127946128" as="geometry" />
        </mxCell>
        <mxCell id="8VdT8h9A5mH0Erl7GHtc-15" value="" style="curved=1;startArrow=none;endArrow=block;exitX=0.5;exitY=1;entryX=0.5;entryY=0;rounded=0;" edge="1" parent="8VdT8h9A5mH0Erl7GHtc-1" source="8VdT8h9A5mH0Erl7GHtc-2" target="8VdT8h9A5mH0Erl7GHtc-3">
          <mxGeometry relative="1" as="geometry">
            <Array as="points" />
          </mxGeometry>
        </mxCell>
        <mxCell id="8VdT8h9A5mH0Erl7GHtc-16" value="" style="curved=1;startArrow=none;endArrow=block;exitX=0.5;exitY=1.01;entryX=0.5;entryY=0;rounded=0;" edge="1" parent="8VdT8h9A5mH0Erl7GHtc-1" source="8VdT8h9A5mH0Erl7GHtc-3" target="8VdT8h9A5mH0Erl7GHtc-4">
          <mxGeometry relative="1" as="geometry">
            <Array as="points" />
          </mxGeometry>
        </mxCell>
        <mxCell id="8VdT8h9A5mH0Erl7GHtc-17" value="" style="curved=1;startArrow=none;endArrow=block;exitX=0.5;exitY=1;entryX=0.5;entryY=0;rounded=0;" edge="1" parent="8VdT8h9A5mH0Erl7GHtc-1" source="8VdT8h9A5mH0Erl7GHtc-4" target="8VdT8h9A5mH0Erl7GHtc-5">
          <mxGeometry relative="1" as="geometry">
            <Array as="points" />
          </mxGeometry>
        </mxCell>
        <mxCell id="8VdT8h9A5mH0Erl7GHtc-18" value="" style="curved=1;startArrow=none;endArrow=block;exitX=0.5;exitY=1;entryX=0.5;entryY=0.01;rounded=0;" edge="1" parent="8VdT8h9A5mH0Erl7GHtc-1" source="8VdT8h9A5mH0Erl7GHtc-5" target="8VdT8h9A5mH0Erl7GHtc-6">
          <mxGeometry relative="1" as="geometry">
            <Array as="points" />
          </mxGeometry>
        </mxCell>
        <mxCell id="8VdT8h9A5mH0Erl7GHtc-19" value="" style="curved=1;startArrow=none;endArrow=block;exitX=0.5;exitY=1.01;entryX=0.5;entryY=0;rounded=0;" edge="1" parent="8VdT8h9A5mH0Erl7GHtc-1" source="8VdT8h9A5mH0Erl7GHtc-6" target="8VdT8h9A5mH0Erl7GHtc-7">
          <mxGeometry relative="1" as="geometry">
            <Array as="points" />
          </mxGeometry>
        </mxCell>
        <mxCell id="8VdT8h9A5mH0Erl7GHtc-20" value="Yes" style="curved=1;startArrow=none;endArrow=block;exitX=0.05;exitY=1;entryX=0.5;entryY=0.01;rounded=0;" edge="1" parent="8VdT8h9A5mH0Erl7GHtc-1" source="8VdT8h9A5mH0Erl7GHtc-7" target="8VdT8h9A5mH0Erl7GHtc-8">
          <mxGeometry relative="1" as="geometry">
            <Array as="points">
              <mxPoint x="281.5007898894155" y="1084.4893378226714" />
            </Array>
          </mxGeometry>
        </mxCell>
        <mxCell id="8VdT8h9A5mH0Erl7GHtc-21" value="No" style="curved=1;startArrow=none;endArrow=block;exitX=0.96;exitY=1;entryX=0.5;entryY=-0.01;rounded=0;" edge="1" parent="8VdT8h9A5mH0Erl7GHtc-1" source="8VdT8h9A5mH0Erl7GHtc-7" target="8VdT8h9A5mH0Erl7GHtc-9">
          <mxGeometry relative="1" as="geometry">
            <Array as="points">
              <mxPoint x="779.4154818325435" y="1084.4893378226714" />
            </Array>
          </mxGeometry>
        </mxCell>
        <mxCell id="8VdT8h9A5mH0Erl7GHtc-22" value="" style="curved=1;startArrow=none;endArrow=block;exitX=0.5;exitY=1.02;entryX=0.5;entryY=-0.01;rounded=0;" edge="1" parent="8VdT8h9A5mH0Erl7GHtc-1" source="8VdT8h9A5mH0Erl7GHtc-8" target="8VdT8h9A5mH0Erl7GHtc-10">
          <mxGeometry relative="1" as="geometry">
            <Array as="points" />
          </mxGeometry>
        </mxCell>
        <mxCell id="8VdT8h9A5mH0Erl7GHtc-23" value="" style="curved=1;startArrow=none;endArrow=block;exitX=0.5;exitY=1;entryX=0.5;entryY=0;rounded=0;" edge="1" parent="8VdT8h9A5mH0Erl7GHtc-1" source="8VdT8h9A5mH0Erl7GHtc-10" target="8VdT8h9A5mH0Erl7GHtc-11">
          <mxGeometry relative="1" as="geometry">
            <Array as="points" />
          </mxGeometry>
        </mxCell>
        <mxCell id="8VdT8h9A5mH0Erl7GHtc-24" value="" style="curved=1;startArrow=none;endArrow=block;exitX=0.5;exitY=1;entryX=0.5;entryY=0;rounded=0;" edge="1" parent="8VdT8h9A5mH0Erl7GHtc-1" source="8VdT8h9A5mH0Erl7GHtc-11" target="8VdT8h9A5mH0Erl7GHtc-12">
          <mxGeometry relative="1" as="geometry">
            <Array as="points" />
          </mxGeometry>
        </mxCell>
        <mxCell id="8VdT8h9A5mH0Erl7GHtc-25" value="" style="curved=1;startArrow=none;endArrow=block;exitX=0.5;exitY=1;entryX=0.5;entryY=0;rounded=0;" edge="1" parent="8VdT8h9A5mH0Erl7GHtc-1" source="8VdT8h9A5mH0Erl7GHtc-12" target="8VdT8h9A5mH0Erl7GHtc-13">
          <mxGeometry relative="1" as="geometry">
            <Array as="points" />
          </mxGeometry>
        </mxCell>
        <mxCell id="8VdT8h9A5mH0Erl7GHtc-26" value="" style="curved=1;startArrow=none;endArrow=block;exitX=0.5;exitY=1.01;entryX=0.5;entryY=0.01;rounded=0;" edge="1" parent="8VdT8h9A5mH0Erl7GHtc-1" source="8VdT8h9A5mH0Erl7GHtc-13" target="8VdT8h9A5mH0Erl7GHtc-14">
          <mxGeometry relative="1" as="geometry">
            <Array as="points" />
          </mxGeometry>
        </mxCell>
      </root>
    </mxGraphModel>
  </diagram>
</mxfile>
